An elderly French Canadian couple returns to visit their ancestral home in France in this documentary from Pierre Perrault. The couple engages in discussions that compare their country home in Canada with that of their French counterparts. Historical footnotes are appropriately added. - allmovie.com

===

Four years after Pour la suite du monde (1963), the director 'Pierre Perrault' ask Alexis Tremblay if he agreed to travel with his wife Marie in the country of their ancestors, France. In a montage parallel, we follow them in France and listen to them talking to their friends about it. - IMDB

==

English and French soft subs included in MKV container

Screens:
 
http://i218.photobucket.com/albums/cc282/deadmeadow33/regne-01.jpg 
http://i218.photobucket.com/albums/cc282/deadmeadow33/regne-02.jpg 
http://i218.photobucket.com/albums/cc282/deadmeadow33/regne-03.jpg 
http://i218.photobucket.com/albums/cc282/deadmeadow33/regne-04.jpg 
http://i218.photobucket.com/albums/cc282/deadmeadow33/regne-05.jpg 
http://i218.photobucket.com/albums/cc282/deadmeadow33/regne-06.jpg


File info:

General
Unique ID                                : 231167400711264621859815193596581783434 (0xADE938CFB90B134885F9E341E21A278A)
Complete name                            : Le Regne du Jour (1967) [Eng & Fre soft subs].mkv
Format                                   : Matroska
Format version                           : Version 2
File size                                : 1.71 GiB
Duration                                 : 1h 58mn
Overall bit rate                         : 2 065 Kbps
Encoded date                             : UTC 2012-11-29 20:55:39
Writing application                      : mkvmerge v5.6.0 ('Kenya Kane') built on May 27 2012 16:44:04
Writing library                          : libebml v1.2.3 + libmatroska v1.3.0

Video
ID                                       : 1
Format                                   : AVC
Format/Info                              : Advanced Video Codec
Format profile                           : High@L4.0
Format settings, CABAC                   : Yes
Format settings, ReFrames                : 16 frames
Codec ID                                 : V_MPEG4/ISO/AVC
Duration                                 : 1h 58mn
Bit rate                                 : 1 832 Kbps
Width                                    : 706 pixels
Height                                   : 480 pixels
Display aspect ratio                     : 4:3
Original display aspect ratio            : 4:3
Frame rate                               : 23.976 fps
Color space                              : YUV
Chroma subsampling                       : 4:2:0
Bit depth                                : 8 bits
Scan type                                : Progressive
Bits/(Pixel*Frame)                       : 0.226
Stream size                              : 1.52 GiB (89%)
Writing library                          : x264 core 120
Encoding settings                        : cabac=1 / ref=16 / deblock=1:-2:-2 / analyse=0x3:0x133 / me=umh / subme=11 / psy=1 / psy_rd=1.10:0.00 / mixed_ref=1 / me_range=32 / chroma_me=1 / trellis=2 / 8x8dct=1 / cqm=0 / deadzone=21,11 / fast_pskip=0 / chroma_qp_offset=-2 / threads=4 / sliced_threads=0 / nr=0 / decimate=1 / interlaced=0 / bluray_compat=0 / constrained_intra=0 / bframes=9 / b_pyramid=2 / b_adapt=2 / b_bias=0 / direct=3 / weightb=1 / open_gop=0 / weightp=2 / keyint=240 / keyint_min=24 / scenecut=40 / intra_refresh=0 / rc_lookahead=60 / rc=crf / mbtree=1 / crf=23.0 / qcomp=0.70 / qpmin=3 / qpmax=69 / qpstep=4 / ip_ratio=1.40 / aq=2:0.90
Language                                 : English
Default                                  : Yes
Forced                                   : No
Color primaries                          : BT.601-6 525, BT.1358 525, BT.1700 NTSC, SMPTE 170M
Transfer characteristics                 : BT.709-5, BT.1361
Matrix coefficients                      : BT.601-6 525, BT.1358 525, BT.1700 NTSC, SMPTE 170M

Audio
ID                                       : 2
Format                                   : AC-3
Format/Info                              : Audio Coding 3
Format profile                           : Dolby Digital
Mode extension                           : CM (complete main)
Codec ID                                 : A_AC3
Duration                                 : 1h 58mn
Bit rate mode                            : Constant
Bit rate                                 : 192 Kbps
Channel(s)                               : 2 channels
Channel positions                        : Front: L R
Sampling rate                            : 48.0 KHz
Bit depth                                : 16 bits
Compression mode                         : Lossy
Stream size                              : 163 MiB (9%)
Language                                 : French
Default                                  : Yes
Forced                                   : No

Text #1
ID                                       : 3
Format                                   : UTF-8
Codec ID                                 : S_TEXT/UTF8
Codec ID/Info                            : UTF-8 Plain Text
Language                                 : English
Default                                  : Yes
Forced                                   : No

Text #2
ID                                       : 4
Format                                   : UTF-8
Codec ID                                 : S_TEXT/UTF8
Codec ID/Info                            : UTF-8 Plain Text
Language                                 : French
Default                                  : No
Forced                                   : No